<svg width="20" height="20" viewBox="0 0 20 20" fill="none" xmlns="http://www.w3.org/2000/svg">
<g clip-path="url(#clip0_1_163)">
<path d="M10.4167 6.66667C8.20834 6.66667 6.20834 7.49167 4.66667 8.83334L3.09167 7.25834C2.56667 6.73334 1.66667 7.1 1.66667 7.84167V12.5C1.66667 12.9583 2.04167 13.3333 2.50001 13.3333H7.15834C7.90001 13.3333 8.27501 12.4333 7.75001 11.9083L6.15834 10.3167C7.31667 9.35001 8.79167 8.75001 10.425 8.75001C13.0583 8.75001 15.3333 10.2833 16.4167 12.5C16.6417 12.9667 17.175 13.2 17.6667 13.0333C18.2583 12.8417 18.5583 12.1667 18.2917 11.6C16.8583 8.68334 13.875 6.66667 10.4167 6.66667Z" fill="#C2B1FF"/>
</g>
<defs>
<clipPath id="clip0_1_163">
<rect width="20" height="20" fill="white"/>
</clipPath>
</defs>
</svg>
