<svg width="16" height="16" viewBox="0 0 16 16" fill="none" xmlns="http://www.w3.org/2000/svg">
<path d="M4.07827 2.46287C3.88416 2.26876 3.95598 1.94203 4.22655 1.89575C5.1088 1.74486 6.04822 2.00977 6.7293 2.69082C7.55728 3.51879 7.77021 4.72861 7.36872 5.75332L12.9808 11.3654C13.4268 11.8114 13.4268 12.5347 12.9808 12.9808C12.5347 13.4268 11.8115 13.4268 11.3654 12.9808L5.75333 7.36871C4.72862 7.7702 3.51881 7.55726 2.69083 6.72928C2.00978 6.04821 1.74487 5.10878 1.89576 4.22654C1.94204 3.95597 2.26878 3.88415 2.46288 4.07825L4.03699 5.65236C4.18568 5.80105 4.42676 5.80105 4.57545 5.65236L5.65237 4.57544C5.80107 4.42674 5.80107 4.18567 5.65237 4.03697L4.07827 2.46287Z" fill="url(#paint0_linear_1_234)"/>
<path d="M13.1729 3.31476C13.2871 3.429 13.3169 3.6029 13.2471 3.74858L12.5082 5.28982C12.4398 5.43266 12.3086 5.5355 12.1536 5.56799L11.6548 5.67237C11.4935 5.70617 11.3294 5.70249 11.1739 5.66501L5.137 11.7019C4.91396 11.925 4.55234 11.925 4.3293 11.7019C4.10627 11.4789 4.10626 11.1173 4.3293 10.8942L10.3664 4.85718C10.3289 4.70177 10.3252 4.53783 10.359 4.37657L10.4634 3.8778C10.4959 3.72275 10.5987 3.59162 10.7416 3.52312L12.2828 2.78432C12.4285 2.71449 12.6024 2.74423 12.7166 2.85846L13.1729 3.31476Z" fill="url(#paint1_linear_1_234)"/>
<path d="M5.13732 9.27876C5.4347 8.98137 5.91686 8.98137 6.21424 9.27876L6.75271 9.81722C7.05009 10.1146 7.05009 10.5968 6.75271 10.8941L4.59886 13.048C4.15278 13.4941 3.42955 13.4941 2.98347 13.048C2.53739 12.6019 2.53739 11.8787 2.98347 11.4326L5.13732 9.27876Z" fill="url(#paint2_linear_1_234)"/>
<defs>
<linearGradient id="paint0_linear_1_234" x1="9.27886" y1="6.72115" x2="6.78847" y2="9.21153" gradientUnits="userSpaceOnUse">
<stop stop-color="#C2F9A6"/>
<stop offset="0.5" stop-color="#EBFFE0"/>
<stop offset="1" stop-color="#7D8580"/>
</linearGradient>
<linearGradient id="paint1_linear_1_234" x1="8.23316" y1="8.47117" x2="7.49276" y2="7.73077" gradientUnits="userSpaceOnUse">
<stop stop-color="#E1EBE6"/>
<stop offset="1" stop-color="#B5BDB9"/>
</linearGradient>
<linearGradient id="paint2_linear_1_234" x1="5.24359" y1="12.4033" x2="3.56144" y2="11.6269" gradientUnits="userSpaceOnUse">
<stop stop-color="#4FA524"/>
<stop offset="1" stop-color="#AAEF87"/>
</linearGradient>
</defs>
</svg>
