<svg width="16" height="16" viewBox="0 0 16 16" fill="none" xmlns="http://www.w3.org/2000/svg">
<path d="M7.23166 8.0691C6.96061 7.77971 6.96801 7.32747 7.24839 7.0471C7.52877 6.76673 7.98101 6.75933 8.27042 7.03037L14.2657 12.6454C14.6797 13.0332 14.6904 13.6867 14.2893 14.0878C13.8882 14.4889 13.2346 14.4782 12.8468 14.0642L7.23166 8.0691Z" fill="url(#paint0_linear_1_257)"/>
<path d="M4.21025 4.56366C4.08778 4.23149 4.41087 3.90841 4.74305 4.03088L6.50003 4.67864C6.63542 4.72855 6.78701 4.70454 6.90034 4.61524L8.37116 3.45625C8.64924 3.23714 9.05635 3.44456 9.04252 3.79832L8.96939 5.66945C8.96375 5.81362 9.03343 5.95037 9.15339 6.03056L10.7102 7.07121C11.0045 7.26796 10.933 7.71924 10.5923 7.8154L8.79012 8.32406C8.65126 8.36325 8.54273 8.47178 8.50354 8.61064L7.99487 10.4128C7.8987 10.7535 7.44741 10.825 7.25066 10.5307L6.20998 8.9739C6.12979 8.85394 5.99304 8.78427 5.84886 8.7899L3.97769 8.86303C3.62392 8.87686 3.41649 8.46976 3.63562 8.19169L4.79463 6.7209C4.88393 6.60757 4.90794 6.45599 4.85803 6.32061L4.21025 4.56366Z" fill="url(#paint1_linear_1_257)"/>
<path d="M2.55583 6.68594C2.72768 6.68594 2.86699 6.82525 2.86699 6.9971C2.86699 7.16895 2.72768 7.30826 2.55583 7.30826H1.31117C1.13931 7.30826 1 7.16895 1 6.9971C1 6.82525 1.13931 6.68594 1.31117 6.68594H2.55583Z" fill="url(#paint2_linear_1_257)"/>
<path d="M1.61951 6.37498C1.61951 6.20313 1.75882 6.06382 1.93067 6.06382C2.10252 6.06382 2.24184 6.20313 2.24184 6.37498L2.24184 7.61961C2.24184 7.79146 2.10253 7.93077 1.93067 7.93077C1.75882 7.93077 1.61951 7.79146 1.61951 7.61961L1.61951 6.37498Z" fill="url(#paint3_linear_1_257)"/>
<path d="M11.5627 3.8526C11.7345 3.8526 11.8738 3.99191 11.8738 4.16376C11.8738 4.33561 11.7345 4.47492 11.5627 4.47492H10.318C10.1461 4.47492 10.0068 4.33561 10.0068 4.16376C10.0068 3.99191 10.1461 3.8526 10.318 3.8526H11.5627Z" fill="url(#paint4_linear_1_257)"/>
<path d="M10.6328 3.54128C10.6328 3.36944 10.7721 3.23012 10.944 3.23012C11.1158 3.23012 11.2551 3.36944 11.2551 3.54128L11.2551 4.78592C11.2551 4.95777 11.1158 5.09708 10.944 5.09708C10.7721 5.09708 10.6328 4.95777 10.6328 4.78592L10.6328 3.54128Z" fill="url(#paint5_linear_1_257)"/>
<defs>
<linearGradient id="paint0_linear_1_257" x1="12.2357" y1="10.2741" x2="10.4755" y2="12.0343" gradientUnits="userSpaceOnUse">
<stop stop-color="#EBFFE0"/>
<stop offset="1" stop-color="#79D04E"/>
</linearGradient>
<linearGradient id="paint1_linear_1_257" x1="4.19198" y1="9.2664" x2="9.44577" y2="4.01248" gradientUnits="userSpaceOnUse">
<stop stop-color="#FFDA62"/>
<stop offset="1" stop-color="#FFF5D4"/>
</linearGradient>
<linearGradient id="paint2_linear_1_257" x1="1.31117" y1="7.10082" x2="2.55583" y2="7.10082" gradientUnits="userSpaceOnUse">
<stop stop-color="#FFDA62"/>
<stop offset="1" stop-color="#FFF5D4"/>
</linearGradient>
<linearGradient id="paint3_linear_1_257" x1="2.03439" y1="7.61961" x2="2.03439" y2="6.37498" gradientUnits="userSpaceOnUse">
<stop stop-color="#FFDA62"/>
<stop offset="1" stop-color="#FFF5D4"/>
</linearGradient>
<linearGradient id="paint4_linear_1_257" x1="10.318" y1="4.26748" x2="11.5627" y2="4.26748" gradientUnits="userSpaceOnUse">
<stop stop-color="#FFDA62"/>
<stop offset="1" stop-color="#FFF5D4"/>
</linearGradient>
<linearGradient id="paint5_linear_1_257" x1="11.0477" y1="4.78592" x2="11.0477" y2="3.54128" gradientUnits="userSpaceOnUse">
<stop stop-color="#FFDA62"/>
<stop offset="1" stop-color="#FFF5D4"/>
</linearGradient>
</defs>
</svg>
