<svg width="16" height="16" viewBox="0 0 16 16" fill="none" xmlns="http://www.w3.org/2000/svg">
<path d="M2.92937 8.63696C1.53028 7.41174 1.45904 5.25874 2.77408 3.94372C3.99722 2.7206 5.96877 2.68411 7.23633 3.86112L12.0222 8.30506C12.4344 8.6879 12.4464 9.33652 12.0486 9.73435C11.661 10.122 11.0324 10.122 10.6448 9.73435L9.75138 8.84094L10.6235 9.84229C10.9688 10.2387 10.9483 10.8347 10.5765 11.2064C10.2048 11.5781 9.60882 11.5986 9.21242 11.2534L8.21107 10.3812L9.06758 11.2377C9.47562 11.6458 9.47562 12.3073 9.06758 12.7153C8.67851 13.1044 8.05436 13.1251 7.64042 12.7626L2.92937 8.63696Z" fill="url(#paint0_linear_1_273)"/>
<path d="M8.63364 3.93913C9.88668 2.65081 11.9515 2.63647 13.2223 3.90727C14.4931 5.17806 14.4787 7.2428 13.1904 8.49583L8.22108 13.3289C7.82185 13.7172 7.18474 13.7128 6.79093 13.319C6.39323 12.9213 6.39323 12.2765 6.79093 11.8788L7.66614 11.0036L6.66479 11.8757C6.26839 12.221 5.67237 12.2005 5.30066 11.8288C4.92896 11.4571 4.90843 10.861 5.25368 10.4647L6.12583 9.46331L5.25062 10.3385C4.85291 10.7362 4.2081 10.7362 3.8104 10.3385C3.41659 9.94471 3.41217 9.30761 3.80047 8.90838L8.63364 3.93913Z" fill="url(#paint1_linear_1_273)"/>
<path d="M5.245 5.17557L7.2228 3.80474L8.96997 5.53288C9.34997 5.90875 9.35165 6.52202 8.97371 6.89995C8.637 7.23666 8.10489 7.27709 7.72117 6.99512L5.245 5.17557Z" fill="url(#paint2_linear_1_273)"/>
<path d="M7.67661 12.1573C7.29922 11.8045 7.27925 11.2126 7.63201 10.8352C7.98477 10.4579 8.57667 10.4379 8.95406 10.7906L9.90731 11.6816C10.0485 11.8137 10.056 12.0352 9.924 12.1764L9.1246 13.0316C8.99259 13.1728 8.77109 13.1803 8.62986 13.0483L7.67661 12.1573Z" fill="url(#paint3_linear_1_273)"/>
<path d="M8.92661 10.8194C8.54922 10.4666 8.52925 9.87473 8.88201 9.49735C9.23477 9.11996 9.82667 9.09999 10.2041 9.45274L11.1573 10.3438C11.2985 10.4758 11.306 10.6973 11.174 10.8385L10.3746 11.6937C10.2426 11.8349 10.0211 11.8424 9.87986 11.7104L8.92661 10.8194Z" fill="url(#paint4_linear_1_273)"/>
<path d="M10.1778 9.48135C9.80038 9.1286 9.78041 8.5367 10.1332 8.15932C10.4859 7.78193 11.0778 7.76196 11.4552 8.11472L12.4085 9.00573C12.5497 9.13774 12.5572 9.35924 12.4252 9.50046L11.6258 10.3557C11.4938 10.4969 11.2722 10.5044 11.131 10.3724L10.1778 9.48135Z" fill="url(#paint5_linear_1_273)"/>
<defs>
<linearGradient id="paint0_linear_1_273" x1="7.19059" y1="3.83382" x2="3.45638" y2="9.12402" gradientUnits="userSpaceOnUse">
<stop stop-color="#F1F4FF"/>
<stop offset="1" stop-color="#87A1FF"/>
</linearGradient>
<linearGradient id="paint1_linear_1_273" x1="10.9639" y1="10.7864" x2="5.88302" y2="7.82257" gradientUnits="userSpaceOnUse">
<stop stop-color="#E45F17"/>
<stop offset="1" stop-color="#FFDFCD"/>
</linearGradient>
<linearGradient id="paint2_linear_1_273" x1="4.23363" y1="3.98951" x2="9.04384" y2="6.81609" gradientUnits="userSpaceOnUse">
<stop offset="0.378922" stop-color="#F1F4FF" stop-opacity="0"/>
<stop offset="0.537476" stop-color="#CFD9FF"/>
<stop offset="0.875443" stop-color="#87A1FF"/>
</linearGradient>
<linearGradient id="paint3_linear_1_273" x1="9.50942" y1="10.6254" x2="7.64933" y2="12.6154" gradientUnits="userSpaceOnUse">
<stop stop-color="#F1F4FF"/>
<stop offset="1" stop-color="#87A1FF"/>
</linearGradient>
<linearGradient id="paint4_linear_1_273" x1="10.7594" y1="9.28748" x2="8.89933" y2="11.2775" gradientUnits="userSpaceOnUse">
<stop stop-color="#F1F4FF"/>
<stop offset="1" stop-color="#87A1FF"/>
</linearGradient>
<linearGradient id="paint5_linear_1_273" x1="12.0106" y1="7.94945" x2="10.1505" y2="9.93946" gradientUnits="userSpaceOnUse">
<stop stop-color="#F1F4FF"/>
<stop offset="1" stop-color="#87A1FF"/>
</linearGradient>
</defs>
</svg>
