<svg width="16" height="16" viewBox="0 0 16 16" fill="none" xmlns="http://www.w3.org/2000/svg">
<path d="M7.57573 11.4697C7.57573 12.1726 7.00591 12.7424 6.303 12.7424C5.60009 12.7424 5.03027 12.1726 5.03027 11.4697C5.03027 10.7668 5.60009 10.197 6.303 10.197C7.00591 10.197 7.57573 10.7668 7.57573 11.4697Z" fill="url(#paint0_linear_1_246)"/>
<path d="M5.03047 13.5909C5.03047 14.0595 4.65059 14.4394 4.18198 14.4394C3.71338 14.4394 3.3335 14.0595 3.3335 13.5909C3.3335 13.1223 3.71338 12.7424 4.18198 12.7424C4.65059 12.7424 5.03047 13.1223 5.03047 13.5909Z" fill="url(#paint1_linear_1_246)"/>
<path d="M5.87879 1.5C7.38711 1.5 8.69095 2.3747 9.31126 3.64442C9.4377 3.62914 9.56641 3.62122 9.69697 3.62122C10.7735 3.62122 11.7251 4.15589 12.3008 4.97412C12.4846 4.92218 12.6784 4.89395 12.8788 4.89395C14.0503 4.89395 15 5.84365 15 7.01517C15 8.18668 14.0503 9.13638 12.8788 9.13638C12.5787 9.13638 12.2934 9.07353 12.0347 8.96113C11.4533 9.59052 10.6213 9.98487 9.69697 9.98487C8.72933 9.98487 7.86269 9.55282 7.27912 8.87123C6.84552 9.04226 6.37316 9.13638 5.87879 9.13638C5.45134 9.13638 5.04033 9.06605 4.65661 8.93648C4.28051 9.19601 3.82485 9.34851 3.33333 9.34851C2.04467 9.34851 1 8.30383 1 7.01517C1 6.19227 1.42625 5.4693 2.06972 5.05387C2.20548 3.06845 3.85892 1.5 5.87879 1.5Z" fill="url(#paint2_linear_1_246)"/>
<defs>
<linearGradient id="paint0_linear_1_246" x1="6.28372" y1="10.197" x2="6.23857" y2="12.5545" gradientUnits="userSpaceOnUse">
<stop offset="0.181899" stop-color="#F1F4FF"/>
<stop offset="1" stop-color="#6385FF"/>
</linearGradient>
<linearGradient id="paint1_linear_1_246" x1="4.16913" y1="12.7424" x2="4.13903" y2="14.3141" gradientUnits="userSpaceOnUse">
<stop offset="0.181899" stop-color="#F1F4FF"/>
<stop offset="1" stop-color="#6385FF"/>
</linearGradient>
<linearGradient id="paint2_linear_1_246" x1="7.89394" y1="1.5" x2="7.80271" y2="9.36034" gradientUnits="userSpaceOnUse">
<stop offset="0.181899" stop-color="#F1F4FF"/>
<stop offset="1" stop-color="#6385FF"/>
</linearGradient>
</defs>
</svg>
