<svg width="27" height="32" viewBox="0 0 27 32" fill="none" xmlns="http://www.w3.org/2000/svg">
<ellipse cx="13.2674" cy="5.89825" rx="5.8983" ry="5.89825" fill="#FF8B4C"/>
<path d="M14.0238 0.0507812C16.9264 0.419912 19.1712 2.89657 19.1713 5.89941C19.1713 6.6388 19.033 7.34588 18.7845 7.99805C18.747 7.99883 18.709 8.00098 18.6713 8.00098C15.7258 8.00083 13.3383 5.61242 13.3383 2.66699C13.3383 1.71616 13.5877 0.823805 14.0238 0.0507812Z" fill="#FFC815"/>
<path d="M13.0891 20.3642C18.7124 20.3642 23.271 16.4568 23.271 11.6369H2.90723C2.90723 16.4568 7.46582 20.3642 13.0891 20.3642Z" fill="#7B56FF"/>
<path d="M13.0867 20.3642C18.71 20.3642 23.2686 16.4568 23.2686 11.6369H18.4201L13.0867 20.3642Z" fill="#4ED0AA"/>
<path d="M13.091 32.0003C20.321 32.0003 26.1821 26.7905 26.1821 20.364H0C0 26.7905 5.86105 32.0003 13.091 32.0003Z" fill="#7B56FF"/>
<path d="M13.0867 32.0003C20.3166 32.0003 26.1777 26.7905 26.1777 20.364H21.0867L13.0867 32.0003Z" fill="#4ED0AA"/>
</svg>
